<svg xmlns="http://www.w3.org/2000/svg" viewBox="0 0 405.01 86.59"><defs><style>.cls-1{fill:#231f20;}.cls-2{opacity:0.7;}</style></defs><title>dadstar-logo-dark</title><g id="Layer_2" data-name="Layer 2"><g id="Layer_1-2" data-name="Layer 1"><path class="cls-1" d="M0,7.23H19.21A27,27,0,0,1,31.39,9.86a19.66,19.66,0,0,1,8.21,7.4,20.76,20.76,0,0,1,2.93,11.12A20.79,20.79,0,0,1,39.6,39.5a19.73,19.73,0,0,1-8.21,7.4,27,27,0,0,1-12.18,2.63H0ZM18.73,41.49q6.35,0,10.12-3.54a12.45,12.45,0,0,0,3.78-9.57,12.49,12.49,0,0,0-3.78-9.58q-3.78-3.53-10.12-3.53H9.79V41.49Z"/><path class="cls-1" d="M77.15,40.46H57.52l-3.75,9.07h-10L62.59,7.23h9.67l18.91,42.3H80.9ZM74.07,33l-6.7-16.19L60.66,33Z"/><path class="cls-1" d="M95.58,7.23h19.21A27,27,0,0,1,127,9.86a19.75,19.75,0,0,1,8.22,7.4,20.85,20.85,0,0,1,2.93,11.12,20.88,20.88,0,0,1-2.93,11.12A19.82,19.82,0,0,1,127,46.9a27,27,0,0,1-12.18,2.63H95.58Zm18.73,34.26q6.34,0,10.12-3.54a12.45,12.45,0,0,0,3.78-9.57,12.49,12.49,0,0,0-3.78-9.58q-3.78-3.53-10.12-3.53h-8.94V41.49Z"/><path class="cls-1" d="M149.69,48.89a22.85,22.85,0,0,1-7.53-3.53L145.49,38a22.8,22.8,0,0,0,6.46,3.2,24.49,24.49,0,0,0,7.49,1.21c2.78,0,4.84-.42,6.17-1.24a3.75,3.75,0,0,0,2-3.3,3.12,3.12,0,0,0-1.18-2.5,8.72,8.72,0,0,0-3-1.6q-1.85-.61-5-1.33a68.82,68.82,0,0,1-7.92-2.3,12.92,12.92,0,0,1-5.29-3.68,10,10,0,0,1-2.2-6.77A11.78,11.78,0,0,1,145,13a13.47,13.47,0,0,1,6-4.74,24.45,24.45,0,0,1,9.81-1.75,32.77,32.77,0,0,1,7.92,1,23.56,23.56,0,0,1,6.77,2.78l-3,7.43a23.6,23.6,0,0,0-11.72-3.32q-4.11,0-6.07,1.33a4.05,4.05,0,0,0-2,3.51A3.43,3.43,0,0,0,155,22.43a35.69,35.69,0,0,0,6.92,2.08,69.43,69.43,0,0,1,7.92,2.3,13.06,13.06,0,0,1,5.28,3.62,9.73,9.73,0,0,1,2.21,6.71,11.52,11.52,0,0,1-2,6.61,13.57,13.57,0,0,1-6.07,4.75,24.72,24.72,0,0,1-9.85,1.75A34.43,34.43,0,0,1,149.69,48.89Z"/><path class="cls-1" d="M192.19,15.21H178.66v-8h36.85v8H202V49.53h-9.79Z"/><path class="cls-1" d="M246.51,40.46H226.87l-3.75,9.07h-10L232,7.23h9.66l18.91,42.3H250.25ZM243.42,33l-6.7-16.19L230,33Z"/><path class="cls-1" d="M291.88,49.53l-8.16-11.79h-9V49.53h-9.79V7.23h18.31A23.47,23.47,0,0,1,293,9.11a14.45,14.45,0,0,1,6.37,5.31,14.68,14.68,0,0,1,2.24,8.16,14.33,14.33,0,0,1-2.27,8.12,14.33,14.33,0,0,1-6.43,5.23l9.48,13.6ZM289.4,17.11q-2.29-1.9-6.7-1.9h-8V30h8q4.41,0,6.7-1.93a6.74,6.74,0,0,0,2.3-5.44A6.7,6.7,0,0,0,289.4,17.11Z"/><path class="cls-1" d="M199.3,70.94h4.81l-1.89,9.37a12.71,12.71,0,0,1-4,2,15.55,15.55,0,0,1-4.71.72,13.52,13.52,0,0,1-6-1.24,9.17,9.17,0,0,1-3.92-3.48,9.68,9.68,0,0,1-1.38-5.17,13.86,13.86,0,0,1,1.79-7,12.62,12.62,0,0,1,5-4.89,15.29,15.29,0,0,1,7.48-1.78,14.55,14.55,0,0,1,5.65,1,9.12,9.12,0,0,1,3.85,3l-3.77,3.06a7,7,0,0,0-2.57-1.94,8.72,8.72,0,0,0-3.38-.6,8.94,8.94,0,0,0-4.59,1.16,8,8,0,0,0-3.08,3.17,9.41,9.41,0,0,0-1.09,4.52A5.35,5.35,0,0,0,189.29,77a7.06,7.06,0,0,0,4.9,1.55,8.76,8.76,0,0,0,3.77-.82Z"/><path class="cls-1" d="M226.66,72.44a9.21,9.21,0,0,1-4.79,3.22l4,7h-5.56l-3.58-6.38h-4.49l-1.27,6.38h-5.3l4.55-22.78h9.28A10.32,10.32,0,0,1,226,61.77a6.25,6.25,0,0,1,2.34,5.2A8.79,8.79,0,0,1,226.66,72.44Zm-5.06-1.53a4.24,4.24,0,0,0,1.45-3.45A2.83,2.83,0,0,0,221.94,65a5.29,5.29,0,0,0-3.16-.81h-4.16l-1.6,7.9h4.49A6.25,6.25,0,0,0,221.6,70.91Z"/><path class="cls-1" d="M234.46,81.84a8.9,8.9,0,0,1-3.84-3.48,10,10,0,0,1-1.33-5.17,13.85,13.85,0,0,1,1.77-7,12.89,12.89,0,0,1,5-4.9,14.83,14.83,0,0,1,7.34-1.79,13.15,13.15,0,0,1,5.92,1.24,8.9,8.9,0,0,1,3.84,3.48,9.93,9.93,0,0,1,1.33,5.17,13.85,13.85,0,0,1-1.77,7,12.82,12.82,0,0,1-5,4.9,14.83,14.83,0,0,1-7.34,1.79A13.31,13.31,0,0,1,234.46,81.84Zm10.77-4.46a7.91,7.91,0,0,0,2.9-3.22,9.83,9.83,0,0,0,1-4.45,5.47,5.47,0,0,0-1.63-4.15A6.41,6.41,0,0,0,242.92,64a7.92,7.92,0,0,0-7.29,4.43,9.83,9.83,0,0,0-1,4.45A5.46,5.46,0,0,0,236.25,77a6.42,6.42,0,0,0,4.59,1.55A7.93,7.93,0,0,0,245.23,77.38Z"/><path class="cls-1" d="M259.06,81a7.34,7.34,0,0,1-2.44-5.84,13.45,13.45,0,0,1,.26-2.44l2.54-12.76h5.3l-2.54,12.66a10.72,10.72,0,0,0-.19,1.92,4,4,0,0,0,1.12,3.07,4.67,4.67,0,0,0,3.27,1,5.22,5.22,0,0,0,3.84-1.43,9,9,0,0,0,2.08-4.59l2.54-12.66H280l-2.57,13q-2.08,10.19-11.65,10.19A9.9,9.9,0,0,1,259.06,81Z"/><path class="cls-1" d="M300.07,61.78A6.33,6.33,0,0,1,302.39,67,9.15,9.15,0,0,1,301,72a8.7,8.7,0,0,1-3.84,3.27,14,14,0,0,1-5.87,1.14h-5.07L285,82.69h-5.3l4.55-22.78h9.21A10.32,10.32,0,0,1,300.07,61.78Zm-4.44,9.13a4.26,4.26,0,0,0,1.43-3.45A2.87,2.87,0,0,0,296,65a5.2,5.2,0,0,0-3.14-.81H288.7l-1.6,7.9h4.46A6.17,6.17,0,0,0,295.63,70.91Z"/><g class="cls-2"><polygon class="cls-1" points="368.3 0 316.53 0 339.76 38.86 354.61 18.64 368.3 25.33 368.3 61.26 354.61 67.96 339.76 47.73 316.53 86.59 316.53 86.59 316.53 86.59 368.3 86.59 405 43.3 368.3 0"/></g><polygon class="cls-1" points="316.53 0 354.61 18.64 368.3 0 316.53 0"/><polygon class="cls-1" points="354.61 67.96 316.53 86.59 368.3 86.59 354.61 67.96"/><polygon class="cls-1" points="368.3 0 368.3 25.33 405 43.3 368.3 0"/><polygon class="cls-1" points="368.3 61.26 368.3 86.59 368.3 86.59 405 43.3 368.3 61.26"/></g></g></svg>