<svg xmlns="http://www.w3.org/2000/svg" viewBox="0 0 405.01 86.59"><defs><style>.cls-1{fill:#fff;}.cls-2{fill:#307bc0;}.cls-3{fill:#65a1cf;}.cls-4{fill:#2d79be;}</style></defs><title>dadstar-logo-light</title><g id="Layer_2" data-name="Layer 2"><g id="Layer_1-2" data-name="Layer 1"><path class="cls-1" d="M0,7.08H19.21A27,27,0,0,1,31.39,9.71a19.66,19.66,0,0,1,8.21,7.4,20.79,20.79,0,0,1,2.93,11.12A20.76,20.76,0,0,1,39.6,39.35a19.66,19.66,0,0,1-8.21,7.4,27,27,0,0,1-12.18,2.63H0ZM18.73,41.34q6.35,0,10.12-3.53a12.49,12.49,0,0,0,3.78-9.58,12.49,12.49,0,0,0-3.78-9.58q-3.78-3.52-10.12-3.53H9.79V41.34Z"/><path class="cls-1" d="M77.15,40.31H57.52l-3.75,9.07h-10L62.59,7.08h9.67l18.91,42.3H80.9Zm-3.08-7.43-6.7-16.19L60.66,32.88Z"/><path class="cls-1" d="M95.58,7.08h19.21A27,27,0,0,1,127,9.71a19.75,19.75,0,0,1,8.22,7.4,20.88,20.88,0,0,1,2.93,11.12,20.85,20.85,0,0,1-2.93,11.12,19.75,19.75,0,0,1-8.22,7.4,27,27,0,0,1-12.18,2.63H95.58Zm18.73,34.26q6.34,0,10.12-3.53a12.49,12.49,0,0,0,3.78-9.58,12.49,12.49,0,0,0-3.78-9.58q-3.78-3.52-10.12-3.53h-8.94V41.34Z"/><path class="cls-1" d="M149.69,48.74a22.65,22.65,0,0,1-7.53-3.53l3.33-7.37A22.54,22.54,0,0,0,152,41a24.49,24.49,0,0,0,7.49,1.21c2.78,0,4.84-.42,6.17-1.24a3.74,3.74,0,0,0,2-3.29,3.13,3.13,0,0,0-1.18-2.51,8.72,8.72,0,0,0-3-1.6c-1.23-.4-2.89-.85-5-1.33A68.82,68.82,0,0,1,150.5,30a12.92,12.92,0,0,1-5.29-3.68,10,10,0,0,1-2.2-6.77,11.78,11.78,0,0,1,2-6.68,13.47,13.47,0,0,1,6-4.74,24.45,24.45,0,0,1,9.81-1.75,32.29,32.29,0,0,1,7.92,1,23.55,23.55,0,0,1,6.77,2.77l-3,7.44a23.51,23.51,0,0,0-11.72-3.33c-2.74,0-4.76.45-6.07,1.33a4.07,4.07,0,0,0-2,3.51A3.42,3.42,0,0,0,155,22.28a35.69,35.69,0,0,0,6.92,2.08,69.43,69.43,0,0,1,7.92,2.3,13.06,13.06,0,0,1,5.28,3.62A9.75,9.75,0,0,1,177.33,37a11.57,11.57,0,0,1-2,6.62,13.62,13.62,0,0,1-6.07,4.74,24.72,24.72,0,0,1-9.85,1.75A34.43,34.43,0,0,1,149.69,48.74Z"/><path class="cls-1" d="M192.19,15.06H178.66v-8h36.85v8H202V49.38h-9.79Z"/><path class="cls-1" d="M246.51,40.31H226.87l-3.75,9.07h-10L232,7.08h9.66l18.91,42.3H250.25Zm-3.09-7.43-6.7-16.19L230,32.88Z"/><path class="cls-1" d="M291.88,49.38l-8.16-11.79h-9V49.38h-9.79V7.08h18.31A23.47,23.47,0,0,1,293,9a14.51,14.51,0,0,1,6.37,5.31,14.68,14.68,0,0,1,2.24,8.16,14.39,14.39,0,0,1-2.27,8.13,14.38,14.38,0,0,1-6.43,5.22l9.48,13.6ZM289.4,17q-2.29-1.91-6.7-1.9h-8V29.8h8q4.41,0,6.7-1.93a6.72,6.72,0,0,0,2.3-5.44A6.7,6.7,0,0,0,289.4,17Z"/><path class="cls-2" d="M199.1,70.79h4.82L202,80.16a12.51,12.51,0,0,1-4,2,15.56,15.56,0,0,1-4.72.72,13.34,13.34,0,0,1-5.95-1.24,9.17,9.17,0,0,1-3.92-3.48A9.69,9.69,0,0,1,182.05,73a13.89,13.89,0,0,1,1.79-7,12.71,12.71,0,0,1,5-4.89,15.4,15.4,0,0,1,7.48-1.78,14.46,14.46,0,0,1,5.64,1,9.23,9.23,0,0,1,3.86,3l-3.78,3.06a6.74,6.74,0,0,0-2.57-1.93,8.5,8.5,0,0,0-3.38-.61A9,9,0,0,0,191.55,65a8.07,8.07,0,0,0-3.07,3.17,9.33,9.33,0,0,0-1.09,4.52,5.35,5.35,0,0,0,1.71,4.18A7.05,7.05,0,0,0,194,78.44a8.77,8.77,0,0,0,3.78-.82Z"/><path class="cls-2" d="M226.46,72.29a9.19,9.19,0,0,1-4.78,3.22l4,7h-5.56l-3.58-6.38H212l-1.27,6.38h-5.3L210,59.76h9.27a10.32,10.32,0,0,1,6.57,1.86,6.23,6.23,0,0,1,2.35,5.2A8.8,8.8,0,0,1,226.46,72.29Zm-5.06-1.53a4.21,4.21,0,0,0,1.45-3.45,2.83,2.83,0,0,0-1.11-2.44,5.23,5.23,0,0,0-3.15-.81h-4.16l-1.6,7.9h4.49A6.2,6.2,0,0,0,221.4,70.76Z"/><path class="cls-2" d="M234.27,81.69a8.9,8.9,0,0,1-3.84-3.48A9.93,9.93,0,0,1,229.1,73a13.85,13.85,0,0,1,1.77-7,12.82,12.82,0,0,1,5-4.9,14.79,14.79,0,0,1,7.33-1.79,13.28,13.28,0,0,1,5.92,1.24,8.9,8.9,0,0,1,3.84,3.48,9.93,9.93,0,0,1,1.34,5.17,13.73,13.73,0,0,1-1.78,7,12.79,12.79,0,0,1-5,4.9,14.86,14.86,0,0,1-7.34,1.79A13.15,13.15,0,0,1,234.27,81.69ZM245,77.23A7.89,7.89,0,0,0,247.93,74a9.7,9.7,0,0,0,1-4.45,5.46,5.46,0,0,0-1.62-4.15,6.42,6.42,0,0,0-4.59-1.55,7.92,7.92,0,0,0-7.29,4.43,9.84,9.84,0,0,0-1,4.46,5.42,5.42,0,0,0,1.63,4.14,6.39,6.39,0,0,0,4.59,1.55A7.93,7.93,0,0,0,245,77.23Z"/><path class="cls-2" d="M258.87,80.8A7.35,7.35,0,0,1,256.42,75a12.69,12.69,0,0,1,.27-2.44l2.53-12.76h5.31L262,72.42a11,11,0,0,0-.2,1.92,3.94,3.94,0,0,0,1.13,3.07,4.62,4.62,0,0,0,3.26,1A5.19,5.19,0,0,0,270,77a9,9,0,0,0,2.09-4.59l2.53-12.66h5.18l-2.57,13q-2.08,10.17-11.65,10.18A9.88,9.88,0,0,1,258.87,80.8Z"/><path class="cls-2" d="M299.87,61.64a6.31,6.31,0,0,1,2.33,5.22,9.11,9.11,0,0,1-1.35,5A8.7,8.7,0,0,1,297,75.12a14,14,0,0,1-5.87,1.14h-5.08l-1.23,6.28h-5.31l4.56-22.78h9.21A10.23,10.23,0,0,1,299.87,61.64Zm-4.44,9.12a4.23,4.23,0,0,0,1.43-3.45,2.84,2.84,0,0,0-1.09-2.44,5.18,5.18,0,0,0-3.14-.81H288.5L286.91,72h4.46A6.15,6.15,0,0,0,295.43,70.76Z"/><polygon class="cls-3" points="368.3 0 316.53 0 339.76 38.86 354.61 18.64 368.3 25.33 368.3 61.26 354.61 67.96 339.76 47.73 316.53 86.59 316.53 86.59 316.53 86.59 368.3 86.59 405 43.3 368.3 0"/><polygon class="cls-4" points="316.53 0 354.61 18.64 368.3 0 316.53 0"/><polygon class="cls-4" points="354.61 67.96 316.53 86.59 368.3 86.59 354.61 67.96"/><polygon class="cls-4" points="368.3 0 368.3 25.33 405 43.3 368.3 0"/><polygon class="cls-4" points="368.3 61.26 368.3 86.59 368.3 86.59 405 43.3 368.3 61.26"/></g></g></svg>