<?xml version="1.0" encoding="utf-8"?>
<!-- Generator: Adobe Illustrator 16.0.0, SVG Export Plug-In . SVG Version: 6.00 Build 0)  -->
<!DOCTYPE svg PUBLIC "-//W3C//DTD SVG 1.1//EN" "http://www.w3.org/Graphics/SVG/1.1/DTD/svg11.dtd">
<svg version="1.1" id="Layer_1" xmlns="http://www.w3.org/2000/svg" xmlns:xlink="http://www.w3.org/1999/xlink" x="0px" y="0px"
	 width="223px" height="40px" viewBox="0 0 223 40" enable-background="new 0 0 223 40" xml:space="preserve">
<path fill="#FFFFFF" d="M12.329,0l10.334,8.829c0.613,0.524,0.967,1.293,0.967,2.103v6.654L13.296,8.757
	c-0.613-0.524-0.967-1.293-0.967-2.104V0z"/>
<path fill="#FFFFFF" d="M12.329,40l10.334-8.829c0.613-0.524,0.967-1.293,0.967-2.103v-6.654l-10.334,8.828
	c-0.613,0.524-0.967,1.294-0.967,2.104V40z"/>
<path fill="#FFFFFF" d="M0,9.311l10.193,8.66c0.495,0.42,1.12,0.65,1.767,0.65h8.221L10.013,9.962
	C9.518,9.542,8.891,9.311,8.244,9.311H0z"/>
<path fill="#FFFFFF" d="M0,30.689l10.131-8.654c0.495-0.424,1.124-0.656,1.772-0.656h8.302l-10.194,8.66
	c-0.494,0.42-1.12,0.65-1.767,0.65H0z"/>
<path fill="#FFFFFF" d="M37.671,0L27.337,8.829c-0.613,0.524-0.967,1.293-0.967,2.103v6.654l10.334-8.829
	c0.613-0.524,0.967-1.293,0.967-2.104V0z"/>
<path fill="#FFFFFF" d="M37.671,40l-10.334-8.829c-0.613-0.524-0.967-1.293-0.967-2.103v-6.654l10.334,8.828
	c0.613,0.524,0.967,1.294,0.967,2.104V40z"/>
<path fill="#FFFFFF" d="M50,9.311l-10.193,8.66c-0.495,0.42-1.12,0.65-1.767,0.65h-8.221l10.168-8.658
	c0.495-0.421,1.122-0.652,1.769-0.652H50z"/>
<path fill="#FFFFFF" d="M50,30.689l-10.131-8.654c-0.495-0.424-1.124-0.656-1.772-0.656h-8.302l10.194,8.66
	c0.494,0.42,1.12,0.65,1.767,0.65H50z"/>
<path fill="#FFFFFF" d="M132.775,10.668c-0.662,0-1.215-0.224-1.664-0.671c-0.447-0.448-0.67-1.002-0.67-1.663
	c0-0.661,0.223-1.215,0.67-1.663C131.561,6.224,132.113,6,132.775,6c0.64,0,1.184,0.224,1.631,0.671s0.672,1.002,0.672,1.663
	c0,0.661-0.225,1.215-0.672,1.663S133.415,10.668,132.775,10.668z"/>
<path fill="#FFFFFF" d="M134.566,13.003v17.619h-3.646V13.003H134.566z"/>
<path fill="#FFFFFF" d="M144.407,13.546c-1.066,0.554-1.909,1.237-2.527,2.046v-2.59h-3.646V39h3.646V28.064
	c0.661,0.81,1.515,1.492,2.56,2.046c1.043,0.533,2.238,0.8,3.582,0.8c1.535,0,2.932-0.384,4.189-1.151
	c1.279-0.789,2.281-1.876,3.006-3.262c0.725-1.407,1.088-2.995,1.088-4.765c0-1.769-0.363-3.336-1.088-4.7
	c-0.725-1.365-1.727-2.42-3.006-3.166c-1.258-0.768-2.654-1.151-4.189-1.151C146.678,12.715,145.473,12.992,144.407,13.546z
	 M151.827,18.599c0.512,0.874,0.767,1.919,0.767,3.134s-0.255,2.281-0.767,3.197c-0.491,0.917-1.152,1.621-1.983,2.111
	c-0.81,0.469-1.685,0.703-2.623,0.703c-0.916,0-1.791-0.234-2.621-0.703c-0.812-0.469-1.473-1.151-1.983-2.047
	c-0.491-0.916-0.736-1.982-0.736-3.197s0.245-2.271,0.736-3.166c0.511-0.896,1.172-1.578,1.983-2.046
	c0.83-0.469,1.705-0.704,2.621-0.704c0.938,0,1.813,0.234,2.623,0.704C150.675,17.032,151.336,17.704,151.827,18.599z"/>
<path fill="#FFFFFF" d="M165.188,30.91c-1.387,0-2.633-0.246-3.742-0.736c-1.088-0.512-1.951-1.193-2.59-2.046
	c-0.641-0.874-0.981-1.845-1.024-2.91h3.774c0.063,0.746,0.416,1.375,1.056,1.887c0.661,0.49,1.481,0.735,2.462,0.735
	c1.023,0,1.813-0.191,2.367-0.575c0.576-0.405,0.863-0.917,0.863-1.535c0-0.661-0.319-1.151-0.959-1.471
	c-0.619-0.319-1.61-0.671-2.975-1.056c-1.322-0.361-2.398-0.714-3.23-1.055c-0.832-0.342-1.557-0.863-2.174-1.566
	c-0.598-0.704-0.896-1.631-0.896-2.783c0-0.938,0.277-1.791,0.832-2.558c0.554-0.789,1.343-1.407,2.365-1.854
	c1.045-0.448,2.24-0.672,3.582-0.672c2.006,0,3.615,0.512,4.83,1.535c1.237,1.002,1.898,2.377,1.983,4.125h-3.646
	c-0.064-0.789-0.385-1.417-0.961-1.887c-0.574-0.469-1.354-0.703-2.334-0.703c-0.959,0-1.695,0.181-2.207,0.543
	s-0.768,0.842-0.768,1.439c0,0.469,0.171,0.863,0.512,1.183c0.342,0.32,0.758,0.576,1.248,0.767c0.49,0.171,1.215,0.395,2.174,0.672
	c1.279,0.341,2.324,0.692,3.135,1.056c0.832,0.341,1.546,0.852,2.143,1.534c0.598,0.683,0.906,1.589,0.928,2.718
	c0,1.002-0.276,1.897-0.832,2.687c-0.554,0.788-1.342,1.407-2.367,1.854C167.734,30.686,166.553,30.91,165.188,30.91z"/>
<path fill="#FFFFFF" d="M219.45,13.579c-1.089-0.576-2.324-0.864-3.71-0.864c-1.301,0-2.516,0.32-3.646,0.959
	c-1.13,0.618-1.962,1.46-2.494,2.526c-0.598-1.13-1.451-1.993-2.56-2.59c-1.108-0.597-2.366-0.896-3.774-0.896
	c-1.043,0-2.024,0.203-2.941,0.608c-0.917,0.405-1.674,0.97-2.271,1.695v-2.015h-3.646v17.619h3.646v-9.849
	c0-1.578,0.395-2.782,1.184-3.613c0.811-0.853,1.897-1.279,3.263-1.279c1.364,0,2.44,0.426,3.229,1.279
	c0.789,0.831,1.184,2.036,1.184,3.613v9.849h3.615v-9.849c0-1.578,0.394-2.782,1.183-3.613c0.81-0.853,1.897-1.279,3.263-1.279
	c1.364,0,2.441,0.426,3.23,1.279c0.788,0.831,1.184,2.036,1.184,3.613v9.849H223V20.229c0-1.599-0.32-2.963-0.959-4.093
	C221.422,15.007,220.559,14.154,219.45,13.579z"/>
<path fill="#FFFFFF" d="M190.716,30.622V13.003h-3.646v9.817c0,1.577-0.406,2.792-1.217,3.645c-0.789,0.832-1.865,1.248-3.229,1.248
	c-1.365,0-2.44-0.416-3.229-1.248c-0.789-0.853-1.185-2.067-1.185-3.645v-9.817h-3.614v10.36c0,1.6,0.309,2.963,0.928,4.094
	c0.64,1.129,1.504,1.982,2.59,2.558c1.109,0.575,2.357,0.863,3.742,0.863c1.045,0,2.026-0.202,2.943-0.607
	c0.938-0.427,1.695-1.002,2.271-1.728v2.079H190.716z"/>
<path fill="#FFFFFF" d="M114.779,29.791c1.343,0.746,2.846,1.119,4.509,1.119c1.685,0,3.22-0.373,4.606-1.119
	c1.406-0.768,2.516-1.844,3.326-3.23c0.809-1.385,1.215-2.973,1.215-4.764s-0.395-3.379-1.184-4.765
	c-0.789-1.386-1.865-2.452-3.23-3.198c-1.364-0.746-2.889-1.12-4.574-1.12c-1.684,0-3.209,0.374-4.573,1.12s-2.44,1.812-3.23,3.198
	c-0.789,1.385-1.183,2.974-1.183,4.765c0,1.812,0.384,3.41,1.151,4.796C112.38,27.957,113.436,29.023,114.779,29.791z
	 M121.911,27.072c-0.81,0.448-1.685,0.672-2.623,0.672c-1.472,0-2.697-0.512-3.679-1.535c-0.959-1.045-1.438-2.516-1.438-4.412
	c0-1.279,0.233-2.356,0.703-3.23c0.47-0.896,1.099-1.567,1.888-2.015c0.811-0.448,1.684-0.671,2.622-0.671s1.812,0.224,2.623,0.671
	c0.81,0.448,1.46,1.119,1.951,2.015c0.489,0.874,0.735,1.951,0.735,3.23s-0.256,2.365-0.768,3.262
	C123.414,25.953,122.742,26.625,121.911,27.072z"/>
<path fill="#FFFFFF" d="M95.577,29.832c-0.025-0.014-0.05-0.027-0.074-0.041c-1.343-0.768-2.399-1.834-3.167-3.198
	c-0.768-1.386-1.151-2.984-1.151-4.796c0-1.791,0.395-3.379,1.184-4.765c0.789-1.386,1.866-2.452,3.23-3.198
	c1.365-0.746,2.889-1.12,4.574-1.12c1.684,0,3.209,0.374,4.574,1.12c1.364,0.746,2.441,1.812,3.23,3.198
	c0.789,1.385,1.183,2.974,1.183,4.765s-0.405,3.379-1.215,4.764c-0.81,1.387-1.919,2.463-3.326,3.23
	c-1.192,0.641-2.494,1.007-3.907,1.097c1.731,0.792,4.364,1.431,5.842,1.79c0.633,0.154,1.054,0.256,1.103,0.297h0.002v3.648H94.375
	v-3.648h7.654C100.082,32.535,97.438,31.092,95.577,29.832z M100.012,27.744c0.938,0,1.812-0.224,2.623-0.672
	c0.831-0.447,1.503-1.119,2.015-2.014c0.511-0.896,0.767-1.982,0.767-3.262s-0.245-2.356-0.735-3.23
	c-0.491-0.896-1.141-1.567-1.951-2.015c-0.811-0.448-1.685-0.671-2.623-0.671s-1.813,0.224-2.623,0.671
	c-0.789,0.448-1.418,1.119-1.887,2.015c-0.469,0.874-0.704,1.951-0.704,3.23c0,1.896,0.48,3.367,1.439,4.412
	C97.315,27.232,98.541,27.744,100.012,27.744z"/>
<path fill="#FFFFFF" d="M76.226,29.791c1.343,0.746,2.847,1.119,4.51,1.119c1.685,0,3.22-0.373,4.605-1.119
	c1.407-0.768,2.516-1.844,3.326-3.23c0.811-1.385,1.216-2.973,1.216-4.764s-0.395-3.379-1.184-4.765
	c-0.789-1.386-1.866-2.452-3.23-3.198c-1.364-0.746-2.889-1.12-4.573-1.12c-1.685,0-3.209,0.374-4.574,1.12s-2.441,1.812-3.23,3.198
	c-0.789,1.385-1.183,2.974-1.183,4.765c0,1.812,0.384,3.41,1.151,4.796C73.828,27.957,74.883,29.023,76.226,29.791z M83.358,27.072
	c-0.81,0.448-1.685,0.672-2.623,0.672c-1.471,0-2.697-0.512-3.678-1.535c-0.959-1.045-1.439-2.516-1.439-4.412
	c0-1.279,0.234-2.356,0.704-3.23c0.469-0.896,1.098-1.567,1.887-2.015c0.811-0.448,1.685-0.671,2.623-0.671
	c0.938,0,1.812,0.224,2.623,0.671c0.81,0.448,1.46,1.119,1.951,2.015c0.491,0.874,0.736,1.951,0.736,3.23s-0.256,2.365-0.768,3.262
	C84.862,25.953,84.19,26.625,83.358,27.072z"/>
<path fill="#FFFFFF" d="M63.646,27.68h7.516v2.942H60V8.398h3.646V27.68z"/>
</svg>
