<?xml version="1.0" encoding="utf-8"?>
<!-- Generator: Adobe Illustrator 26.3.1, SVG Export Plug-In . SVG Version: 6.00 Build 0)  -->
<svg version="1.1" id="katman_1" xmlns="http://www.w3.org/2000/svg" xmlns:xlink="http://www.w3.org/1999/xlink" x="0px" y="0px"
	 viewBox="0 0 425.3 86.6" style="enable-background:new 0 0 425.3 86.6;" xml:space="preserve">
<style type="text/css">
	.st0{fill:#231F20;}
	.st1{opacity:0.7;fill:#231F20;}
</style>
<g id="Layer_2">
	<g id="Layer_1-2">
		<g>
			<path class="st0" d="M219.7,70.8h4.8l-1.9,9.4c-1.2,0.9-2.6,1.6-4,2c-1.5,0.5-3.1,0.7-4.7,0.7c-2.1,0.1-4.1-0.4-5.9-1.2
				c-1.6-0.8-3-2-3.9-3.5c-0.9-1.6-1.4-3.3-1.4-5.2c0-2.5,0.6-4.9,1.8-7s2.9-3.8,5-4.9c2.3-1.2,4.9-1.8,7.5-1.8c1.9,0,3.8,0.3,5.6,1
				c1.5,0.6,2.9,1.7,3.9,3l-3.8,3.1c-0.7-0.8-1.6-1.5-2.6-1.9c-1.1-0.4-2.2-0.6-3.4-0.6c-1.6,0-3.2,0.4-4.5,1.2
				c-1.3,0.8-2.4,1.8-3.1,3.2c-0.7,1.4-1.1,2.9-1.1,4.5c-0.1,1.6,0.6,3.1,1.7,4.2c1.4,1.1,3.1,1.7,4.9,1.6c1.3,0,2.6-0.3,3.8-0.8
				L219.7,70.8z"/>
			<path class="st0" d="M247.1,72.3c-1.2,1.6-2.9,2.7-4.8,3.2l4,7h-5.6l-3.6-6.4h-4.5l-1.3,6.4H226l4.6-22.8h9.3
				c2.3-0.1,4.7,0.5,6.6,1.9c1.6,1.3,2.5,3.2,2.4,5.2C248.9,68.8,248.3,70.7,247.1,72.3z M242,70.8c1-0.9,1.5-2.1,1.4-3.4
				c0.1-0.9-0.4-1.9-1.1-2.4c-0.9-0.6-2-0.9-3.1-0.8H235l-1.6,7.9h4.5C239.4,72.1,240.9,71.6,242,70.8L242,70.8z"/>
			<path class="st0" d="M254.9,81.7c-1.6-0.8-2.9-2-3.8-3.5c-0.9-1.6-1.4-3.4-1.3-5.2c0-2.4,0.6-4.9,1.8-7s2.9-3.8,5-4.9
				c2.2-1.2,4.8-1.8,7.3-1.8c2,0,4.1,0.4,5.9,1.2c1.6,0.8,2.9,2,3.8,3.5c0.9,1.6,1.4,3.4,1.3,5.2c0,2.5-0.6,4.9-1.8,7
				c-1.2,2.1-2.9,3.8-5,4.9c-2.3,1.2-4.8,1.8-7.3,1.8C258.8,83,256.8,82.5,254.9,81.7z M265.6,77.2c1.3-0.8,2.3-1.9,2.9-3.2
				c0.7-1.4,1-2.9,1-4.4c0.1-1.6-0.5-3.1-1.6-4.2c-1.3-1.1-2.9-1.7-4.6-1.5c-3.1-0.1-5.9,1.7-7.3,4.4c-0.7,1.4-1,2.9-1,4.5
				c-0.1,1.5,0.5,3.1,1.6,4.1c1.3,1.1,2.9,1.7,4.6,1.6C262.8,78.5,264.3,78,265.6,77.2z"/>
			<path class="st0" d="M279.5,80.8c-1.6-1.5-2.5-3.6-2.4-5.8c0-0.8,0.1-1.6,0.3-2.4l2.5-12.8h5.3l-2.5,12.6
				c-0.1,0.6-0.2,1.3-0.2,1.9c-0.1,1.1,0.3,2.3,1.1,3.1c0.9,0.7,2.1,1.1,3.3,1c1.4,0.1,2.8-0.4,3.8-1.4c1.1-1.3,1.8-2.9,2.1-4.6
				l2.5-12.7h5.2l-2.6,13c-1.4,6.8-5.3,10.2-11.6,10.2C283.8,83.1,281.4,82.3,279.5,80.8z"/>
			<path class="st0" d="M320.5,61.6c1.6,1.3,2.4,3.2,2.3,5.2c0,1.8-0.4,3.5-1.4,5c-0.9,1.4-2.3,2.6-3.8,3.3
				c-1.9,0.8-3.9,1.2-5.9,1.1h-5.1l-1.2,6.3h-5.3l4.6-22.8h9.2C316.3,59.6,318.6,60.3,320.5,61.6z M316.1,70.8
				c1-0.9,1.5-2.1,1.4-3.4c0.1-0.9-0.3-1.9-1.1-2.4c-0.9-0.6-2-0.9-3.1-0.8h-4.1l-1.6,7.9h4.5C313.5,72.1,314.9,71.6,316.1,70.8z"/>
		</g>
		<polygon class="st1" points="388.6,0 336.8,0 360.1,38.9 374.9,18.6 388.6,25.3 388.6,61.3 374.9,68 360.1,47.7 336.8,86.6 
			336.8,86.6 336.8,86.6 388.6,86.6 425.3,43.3 		"/>
		<polygon class="st0" points="336.8,0 374.9,18.6 388.6,0 		"/>
		<polygon class="st0" points="374.9,68 336.8,86.6 388.6,86.6 		"/>
		<polygon class="st0" points="388.6,0 388.6,25.3 425.3,43.3 		"/>
		<polygon class="st0" points="388.6,61.3 388.6,86.6 388.6,86.6 425.3,43.3 		"/>
		<g>
			<polygon class="st0" points="39.2,7.4 23.8,33.5 8,7.4 0,7.4 0,49.4 9.1,49.4 9.1,24.7 21.4,44.9 25.8,44.9 38.2,24.2 38.2,49.4 
				47.3,49.4 47.2,7.4 			"/>
			<path class="st0" d="M94.3,12.8c-2.1-2-4.5-3.5-7.3-4.6s-5.8-1.6-9.2-1.6c-3.3,0-6.3,0.5-9.1,1.6c-2.8,1.1-5.2,2.6-7.3,4.6
				s-3.7,4.3-4.8,6.9s-1.7,5.5-1.7,8.6s0.6,6,1.7,8.6c1.1,2.6,2.7,4.9,4.8,6.9s4.5,3.5,7.3,4.6c2.8,1.1,5.9,1.6,9.2,1.6
				c3.3,0,6.3-0.5,9.1-1.6c2.8-1.1,5.2-2.6,7.3-4.5c2.1-1.9,3.7-4.2,4.8-6.9c1.2-2.7,1.7-5.5,1.7-8.7s-0.6-6-1.7-8.7
				C98,17.1,96.4,14.8,94.3,12.8z M90.1,33.8c-0.7,1.6-1.6,3.1-2.8,4.3c-1.2,1.2-2.6,2.1-4.2,2.8c-1.6,0.6-3.3,1-5.2,1
				c-1.9,0-3.6-0.3-5.2-1c-1.6-0.6-3-1.6-4.2-2.8s-2.1-2.6-2.8-4.3c-0.7-1.7-1-3.5-1-5.4c0-2,0.3-3.8,1-5.5c0.7-1.6,1.6-3.1,2.8-4.3
				c1.2-1.2,2.6-2.1,4.2-2.8c1.6-0.6,3.3-1,5.2-1c1.9,0,3.6,0.3,5.2,1c1.6,0.6,3,1.6,4.2,2.8s2.1,2.6,2.8,4.3c0.7,1.6,1,3.5,1,5.5
				S90.7,32.2,90.1,33.8z"/>
			<polygon class="st0" points="147.8,7.4 132.3,33.5 116.6,7.4 108.5,7.4 108.5,49.4 117.7,49.4 117.7,24.7 130,44.9 134.3,44.9 
				146.7,24.2 146.8,49.4 155.9,49.4 155.8,7.4 			"/>
			<path class="st0" d="M192.9,28.1c-1.4-0.9-3-1.6-4.8-2.1c-1.7-0.5-3.5-1-5.2-1.4s-3.3-0.8-4.8-1.2c-1.4-0.4-2.6-0.9-3.5-1.6
				s-1.3-1.5-1.3-2.6c0-0.9,0.3-1.7,0.8-2.4c0.5-0.7,1.4-1.3,2.6-1.7c1.2-0.4,2.7-0.7,4.6-0.7c1.9,0,3.8,0.3,5.8,0.8
				s3.9,1.4,5.9,2.5l3-7.4c-2-1.2-4.2-2.2-6.8-2.8s-5.2-0.9-7.8-0.9c-4,0-7.3,0.6-9.9,1.8c-2.6,1.2-4.6,2.8-5.9,4.7
				c-1.3,2-2,4.2-2,6.6c0,2.2,0.5,4.1,1.4,5.5s2.1,2.6,3.5,3.5s3,1.6,4.8,2.2c1.7,0.6,3.5,1,5.2,1.4s3.3,0.8,4.8,1.2s2.6,1,3.5,1.6
				c0.9,0.7,1.3,1.6,1.3,2.7c0,0.9-0.3,1.7-0.8,2.3c-0.6,0.7-1.4,1.2-2.6,1.6c-1.2,0.4-2.7,0.6-4.7,0.6c-2.5,0-5-0.4-7.5-1.2
				s-4.6-1.9-6.4-3.1l-3.3,7.3c1.9,1.4,4.4,2.6,7.4,3.5c3.1,0.9,6.3,1.4,9.7,1.4c4,0,7.3-0.6,9.9-1.8c2.6-1.2,4.6-2.8,5.9-4.7
				c1.3-2,2-4.1,2-6.5c0-2.2-0.5-4-1.4-5.5C195.5,30.2,194.3,29,192.9,28.1z"/>
			<polygon class="st0" points="236,7.4 199.4,7.4 199.4,15.3 212.8,15.3 212.8,49.4 222.5,49.4 222.5,15.3 236,15.3 			"/>
			<path class="st0" d="M252.6,7.4l-18.7,42h10l3.7-9H267l3.7,9H281l-18.8-42C262.2,7.4,252.6,7.4,252.6,7.4z M250.7,33l6.7-16.1
				L264,33H250.7z"/>
			<path class="st0" d="M322.9,49.4l-9.4-13.5h0.1c2.7-1.2,4.8-2.9,6.3-5.2s2.2-5,2.2-8.1c0-3.2-0.7-5.9-2.2-8.2s-3.6-4-6.3-5.2
				c-2.7-1.2-6-1.8-9.7-1.8h-18.2v42h9.7V37.7h8.5c0.2,0,0.3,0,0.4,0l8.1,11.7H322.9z M310,17.2c1.5,1.3,2.2,3.1,2.2,5.4
				s-0.7,4.1-2.2,5.4s-3.7,2-6.7,2h-7.9V15.3h7.9C306.3,15.3,308.5,15.9,310,17.2z"/>
		</g>
	</g>
</g>
</svg>
