<svg xmlns="http://www.w3.org/2000/svg" xmlns:xlink="http://www.w3.org/1999/xlink" viewBox="0 0 421.45 76.92"><defs><style>.cls-1{fill:none;}.cls-2,.cls-6{fill:#33312a;}.cls-3{fill:#f8c03e;}.cls-3,.cls-6,.cls-7,.cls-8,.cls-9{fill-rule:evenodd;}.cls-4,.cls-8{fill:#f8c019;}.cls-5{fill:url(#New_Gradient_Swatch_2);}.cls-7{fill:#99ba9a;}.cls-9{fill:#fff;opacity:0.3;}</style><linearGradient id="New_Gradient_Swatch_2" x1="353.61" y1="49.12" x2="371.98" y2="30.42" gradientUnits="userSpaceOnUse"><stop offset="0" stop-color="#4e928e"/><stop offset="0.48" stop-color="#5b9679"/><stop offset="1" stop-color="#696"/></linearGradient></defs><title>tatilcikus-logo</title><g id="Layer_2" data-name="Layer 2"><g id="Layer_1-2" data-name="Layer 1"><path class="cls-1" d="M54.2,41.46h.69c-.11-.39-.21-.79-.32-1.18C54.44,40.67,54.32,41.07,54.2,41.46Z"/><path class="cls-2" d="M34.43,20.45H4.35a4.31,4.31,0,0,0-3.14,1.17A5.22,5.22,0,0,0,0,25.49a9.64,9.64,0,0,0,1.31,4.83H11.66V57.09a8.31,8.31,0,0,0,.42,2.9,3.62,3.62,0,0,0,1.24,1.72,4.86,4.86,0,0,0,2,.86,13.73,13.73,0,0,0,2.8.25,25.07,25.07,0,0,0,3.21-.21,21.7,21.7,0,0,0,2.38-.41V30.32H31.4a4.27,4.27,0,0,0,3.13-1.18,5.19,5.19,0,0,0,1.21-3.86,9.26,9.26,0,0,0-.41-2.76A9.36,9.36,0,0,0,34.43,20.45Z"/><path class="cls-2" d="M69.76,42.29q-1.45-5.07-2.9-9.83t-2.69-8.35A5.33,5.33,0,0,0,60.75,21a17.15,17.15,0,0,0-6.1-1,18.71,18.71,0,0,0-4.8.62A14.49,14.49,0,0,0,46.3,21.9c-.32.83-.77,2-1.35,3.59s-1.2,3.34-1.89,5.34S41.63,35,40.85,37.22s-1.52,4.45-2.21,6.59-1.32,4.13-1.9,6-1,3.38-1.34,4.62c-.23.87-.44,1.63-.62,2.28a6.73,6.73,0,0,0-.28,1.93A3.87,3.87,0,0,0,36.19,62a9,9,0,0,0,5.21,1.21A12.08,12.08,0,0,0,44,62.92a17.18,17.18,0,0,0,2-.59c.37-1.38.74-2.8,1.11-4.28s.73-2.89,1.1-4.27H60.72L62,58.54a12.61,12.61,0,0,0,.8,2.07,4,4,0,0,0,1.17,1.45,5,5,0,0,0,1.86.83,12.34,12.34,0,0,0,2.8.27,11.82,11.82,0,0,0,3.93-.59A5.63,5.63,0,0,0,75,61q-1-3.8-2.41-8.73T69.76,42.29ZM50.23,44.46c.65-2.44,1.37-4.84,2.18-7.21l2.17-6.45H55c.55,1.89,1.16,4,1.83,6.38s1.32,4.8,2,7.28Z"/><path class="cls-2" d="M108,20.45H77.9a4.33,4.33,0,0,0-3.14,1.17,5.26,5.26,0,0,0-1.21,3.87A9,9,0,0,0,74,28.25a8.5,8.5,0,0,0,.9,2.07H85.22V57.09a8.34,8.34,0,0,0,.41,2.9,3.76,3.76,0,0,0,1.24,1.72,4.85,4.85,0,0,0,2,.86,13.56,13.56,0,0,0,2.79.25,25,25,0,0,0,3.21-.21,21.7,21.7,0,0,0,2.38-.41V30.32H105a4.29,4.29,0,0,0,3.14-1.18,5.23,5.23,0,0,0,1.21-3.86A9.92,9.92,0,0,0,108,20.45Z"/><path class="cls-2" d="M119.3,16.38a6.14,6.14,0,0,0,4.59-1.73,5.84,5.84,0,0,0,1.69-4.27,5.85,5.85,0,0,0-1.69-4.28,6.14,6.14,0,0,0-4.59-1.73,6,6,0,0,0-4.45,1.73,5.85,5.85,0,0,0-1.69,4.28,5.84,5.84,0,0,0,1.69,4.27A6,6,0,0,0,119.3,16.38Z"/><path class="cls-2" d="M124.13,21.14a5,5,0,0,0-2-.86,14.54,14.54,0,0,0-2.8-.24,22.07,22.07,0,0,0-3.17.24c-1.11.16-1.91.29-2.42.38V57.09a8.31,8.31,0,0,0,.42,2.9,3.69,3.69,0,0,0,1.24,1.72,4.86,4.86,0,0,0,2,.86,13.73,13.73,0,0,0,2.8.25,25,25,0,0,0,3.21-.21,21.7,21.7,0,0,0,2.38-.41V25.76a8.25,8.25,0,0,0-.42-2.89A3.67,3.67,0,0,0,124.13,21.14Z"/><path class="cls-2" d="M161.18,53h-15.8V25.69A8.28,8.28,0,0,0,145,22.8a3.79,3.79,0,0,0-1.24-1.73,5,5,0,0,0-2-.86A14.36,14.36,0,0,0,138.9,20a22.21,22.21,0,0,0-3.18.24c-1.1.16-1.91.29-2.41.38V56.26a6,6,0,0,0,6.42,6.42h18.49a4.26,4.26,0,0,0,3.1-1.14,5.32,5.32,0,0,0,1.18-3.9A9.45,9.45,0,0,0,161.18,53Z"/><path class="cls-2" d="M195.68,51.5a32.18,32.18,0,0,1-3.76,1.72,13.26,13.26,0,0,1-4.79.76,11.24,11.24,0,0,1-8.46-3.24q-3.13-3.24-3.13-9.25t2.82-9.17c1.89-2.16,4.6-3.25,8.15-3.25a12.47,12.47,0,0,1,4.72.83,22.07,22.07,0,0,1,3.83,2,7.28,7.28,0,0,0,2.07-2.07,5.32,5.32,0,0,0,.9-3.1q0-3.24-3.49-5.31t-9.83-2.07a24.11,24.11,0,0,0-8.42,1.45,19.39,19.39,0,0,0-6.86,4.27A20,20,0,0,0,164.81,32a24.68,24.68,0,0,0-1.69,9.48,25.52,25.52,0,0,0,1.76,10,19.1,19.1,0,0,0,4.79,6.9,19.36,19.36,0,0,0,7.11,4,28,28,0,0,0,8.69,1.31c4.28,0,7.46-.65,9.56-2s3.14-2.91,3.14-4.8a7.08,7.08,0,0,0-.66-3.14A6.84,6.84,0,0,0,195.68,51.5Z"/><path class="cls-2" d="M213.55,21.14a5,5,0,0,0-2-.86,14.54,14.54,0,0,0-2.8-.24,22.07,22.07,0,0,0-3.17.24c-1.1.16-1.91.29-2.41.38V57.09a8.34,8.34,0,0,0,.41,2.9,3.76,3.76,0,0,0,1.24,1.72,4.85,4.85,0,0,0,2,.86,13.56,13.56,0,0,0,2.79.25,25,25,0,0,0,3.21-.21,21.7,21.7,0,0,0,2.38-.41V25.76a8.52,8.52,0,0,0-.41-2.89A3.69,3.69,0,0,0,213.55,21.14Z"/><path class="cls-2" d="M208.72,16.38a6.11,6.11,0,0,0,4.59-1.73A5.84,5.84,0,0,0,215,10.38a5.85,5.85,0,0,0-1.69-4.28,6.11,6.11,0,0,0-4.59-1.73,6,6,0,0,0-4.45,1.73,5.89,5.89,0,0,0-1.69,4.28,5.88,5.88,0,0,0,1.69,4.27A6,6,0,0,0,208.72,16.38Z"/><path class="cls-2" d="M252.75,49.67l-3.66-4q-1.86-2-3.59-3.93l8.63-8.62A17.52,17.52,0,0,0,257,29.56a6.76,6.76,0,0,0,.9-3.38,5.39,5.39,0,0,0-2-4.18q-2-1.76-6.73-1.76L234.81,36.73v-11a8.25,8.25,0,0,0-.42-2.89,3.67,3.67,0,0,0-1.24-1.73,5,5,0,0,0-2-.86,14.36,14.36,0,0,0-2.79-.24,22.07,22.07,0,0,0-3.17.24c-1.11.16-1.91.29-2.42.38V57.09a8.31,8.31,0,0,0,.42,2.9,3.62,3.62,0,0,0,1.24,1.72,4.86,4.86,0,0,0,2,.86,13.73,13.73,0,0,0,2.8.25,25.77,25.77,0,0,0,3.24-.21,21.24,21.24,0,0,0,2.41-.41V47l9.73,11.31a25.16,25.16,0,0,0,3.45,3.35,8.1,8.1,0,0,0,7.11,1,6.52,6.52,0,0,0,2.11-1.24,6.17,6.17,0,0,0,1.48-2,6.25,6.25,0,0,0,.55-2.69l-3.07-3.25C255.1,52.24,253.94,51,252.75,49.67Z"/><path class="cls-2" d="M298.56,21.14a5,5,0,0,0-2-.86,14.54,14.54,0,0,0-2.8-.24,22.07,22.07,0,0,0-3.17.24c-1.11.16-1.91.29-2.42.38V46.81A7.16,7.16,0,0,1,286.35,52a7,7,0,0,1-9.49,0A7,7,0,0,1,275,46.81v-21a8.52,8.52,0,0,0-.41-2.89,3.74,3.74,0,0,0-1.24-1.73,5,5,0,0,0-2-.86,14.43,14.43,0,0,0-2.79-.24,22.21,22.21,0,0,0-3.18.24c-1.1.16-1.91.29-2.41.38V47a17.53,17.53,0,0,0,1.27,6.8,14.52,14.52,0,0,0,3.7,5.25,16.73,16.73,0,0,0,5.86,3.34,26.55,26.55,0,0,0,15.59,0,16.78,16.78,0,0,0,5.87-3.34,14.38,14.38,0,0,0,3.69-5.25,17.53,17.53,0,0,0,1.28-6.8V25.76a8.25,8.25,0,0,0-.42-2.89A3.67,3.67,0,0,0,298.56,21.14Z"/><path class="cls-2" d="M310.33,23a11.29,11.29,0,0,0-4.52,9.39,11.9,11.9,0,0,0,1,5.14,10.58,10.58,0,0,0,2.79,3.62,17.22,17.22,0,0,0,4.28,2.59c1.66.71,3.49,1.41,5.52,2.1l2.9,1a14.35,14.35,0,0,1,3.1,1.41,2.38,2.38,0,0,1,1.11,2.11,3,3,0,0,1-1.38,2.41c-.92.69-2.51,1-4.76,1a16.4,16.4,0,0,1-6.11-1.11,18.75,18.75,0,0,1-4.73-2.62A9,9,0,0,0,307,52.22a5.22,5.22,0,0,0-1.17,3.42,5.39,5.39,0,0,0,.89,3.07,8.17,8.17,0,0,0,2.49,2.35A13.77,13.77,0,0,0,313,62.64a26.57,26.57,0,0,0,4.79.8,3.92,3.92,0,0,1,.38,1.2,7.28,7.28,0,0,1,.11,1.07q0,3.18-4.49,3.38-.14.42-.24.87a5.53,5.53,0,0,0-.1,1.2,5.07,5.07,0,0,0,1.76,4.11,7,7,0,0,0,4.65,1.48,8.21,8.21,0,0,0,6.28-2.34,8.34,8.34,0,0,0,2.21-5.94,9.35,9.35,0,0,0-.52-3.27,11.44,11.44,0,0,0-1-2.18q6.08-1.17,9.14-4.48A11.44,11.44,0,0,0,339,50.47a11.3,11.3,0,0,0-3.49-8.73,26.46,26.46,0,0,0-10-5.28l-3.66-1.18a9.13,9.13,0,0,1-2.69-1.2,2,2,0,0,1-.9-1.69,2.53,2.53,0,0,1,1.45-2.18,9.31,9.31,0,0,1,4.56-.86c.43,0,.85,0,1.27,0A72,72,0,0,1,320,19.63,18.08,18.08,0,0,0,310.33,23Z"/><path class="cls-3" d="M365.09,50.72a1.23,1.23,0,1,0-2.26,1c.92,2.1.53,4.74-.78,7.35A20.55,20.55,0,0,1,355,66.74a1.23,1.23,0,1,0,1.34,2.07,23.06,23.06,0,0,0,7.94-8.65c1.63-3.24,2.08-6.62.84-9.44Z"/><path class="cls-3" d="M358.12,74.68a1.23,1.23,0,1,0,2.46-.22,13.52,13.52,0,0,0-.93-4.28,6.65,6.65,0,0,0-3.5-3.53,1.23,1.23,0,0,0-1.63.61,1.24,1.24,0,0,0,.61,1.64,4.21,4.21,0,0,1,2.26,2.27,11.24,11.24,0,0,1,.73,3.51Z"/><path class="cls-3" d="M351.37,73.74a1.23,1.23,0,0,0,1.57,1.9,13.63,13.63,0,0,0,3-3.2,6.61,6.61,0,0,0,.91-4.89,1.23,1.23,0,0,0-2.42.44,4.31,4.31,0,0,1-.58,3.15,11.89,11.89,0,0,1-2.48,2.6Z"/><path class="cls-3" d="M355.78,53a1.23,1.23,0,0,0-2.39.62c.59,2.22-.21,4.77-1.91,7.14a20.59,20.59,0,0,1-8.18,6.49,1.23,1.23,0,1,0,1,2.25,23,23,0,0,0,9.18-7.31c2.11-3,3.09-6.22,2.3-9.19Z"/><path class="cls-3" d="M345.17,75.61a1.24,1.24,0,1,0,2.47.15,14,14,0,0,0-.25-4.37,6.67,6.67,0,0,0-2.91-4,1.24,1.24,0,0,0-1.36,2.07A4.24,4.24,0,0,1,345,72a11.49,11.49,0,0,1,.17,3.59Z"/><path class="cls-3" d="M338.65,73.62a1.23,1.23,0,0,0,1.26,2.12,13.61,13.61,0,0,0,3.46-2.69A6.65,6.65,0,0,0,345,68.37a1.24,1.24,0,0,0-1.26-1.21,1.23,1.23,0,0,0-1.2,1.26,4.29,4.29,0,0,1-1.07,3,11.44,11.44,0,0,1-2.85,2.18Z"/><path class="cls-4" d="M421.45,3.57c-5.55,6.07-18.69,8.6-29.05,12.09,7,10.12,7.24,18.55,5.42,24.67C409.93,34.39,421.44,13.18,421.45,3.57Z"/><path class="cls-5" d="M387.4,14C373.79-2.45,361.08,3.41,351.28,15.7c-6.39,8-8.28,18.83-10.74,27.91A15.68,15.68,0,0,1,342,50.47a14.41,14.41,0,0,1-3.88,10.11l-.38.38C369.07,69.46,414.75,47.15,387.4,14Z"/><path class="cls-6" d="M366.31,16.35a.85.85,0,0,1,.83-1.48,3.47,3.47,0,0,0,1.54.39,5.88,5.88,0,0,0,2.62-.57,4.41,4.41,0,0,0,2-1.79,3.75,3.75,0,0,0,.47-1.72.85.85,0,0,1,1.69.07,5.54,5.54,0,0,1-.68,2.48A6.15,6.15,0,0,1,372,16.21a7.36,7.36,0,0,1-3.42.73,5.1,5.1,0,0,1-2.31-.59Z"/><path class="cls-7" d="M341.41,61.81c25.27,4.82,57.26-8.75,54.15-31.13-24.4-12.48-37.91,24.12-54.15,31.13Z"/><path class="cls-6" d="M388.45,15.58l8.42-9.44-11.71,5.33L390.4,0l-9,8.39c-1.94,3.81,4.11,9,7.09,7.19Z"/><path class="cls-8" d="M318.47,3.53c-.28,14.4,24.76,55.41,40.24,31.69,13.43-20.58-29.21-19.13-40.24-31.69Z"/><path class="cls-9" d="M319.57,10.3C323.89,25.22,340,48.52,353,41a21.79,21.79,0,0,0,2.05-2.71C367,20,334.66,19.09,319.57,10.3Z"/></g></g></svg>