<svg xmlns="http://www.w3.org/2000/svg" viewBox="0 0 421.47 77.03"><defs><style>.cls-1{fill-rule:evenodd;}</style></defs><title>tatilcikus-logo-black</title><g id="Layer_2" data-name="Layer 2"><g id="Layer_1-2" data-name="Layer 1"><g id="Layer_2-2" data-name="Layer 2"><g id="Layer_1-2-2" data-name="Layer 1-2"><path d="M54.22,41.46h.69c-.11-.39-.21-.79-.32-1.18C54.46,40.67,54.34,41.07,54.22,41.46Z"/><path d="M34.45,20.45H4.37a4.31,4.31,0,0,0-3.14,1.17A5.27,5.27,0,0,0,0,25.49a9.75,9.75,0,0,0,1.31,4.83H11.68V57.09A8.39,8.39,0,0,0,12.1,60a3.75,3.75,0,0,0,1.24,1.72,5,5,0,0,0,2,.86,13.89,13.89,0,0,0,2.8.25,24.49,24.49,0,0,0,3.21-.21,21.13,21.13,0,0,0,2.38-.41V30.32h7.69a4.28,4.28,0,0,0,3.13-1.18,5.16,5.16,0,0,0,1.21-3.86,9.64,9.64,0,0,0-1.31-4.83Z"/><path d="M69.78,42.29q-1.44-5.07-2.9-9.83c-1-3.17-1.86-6-2.69-8.35A5.3,5.3,0,0,0,60.77,21a17.09,17.09,0,0,0-6.1-1,19,19,0,0,0-4.8.62,14.64,14.64,0,0,0-3.55,1.28c-.32.83-.77,2-1.35,3.59s-1.2,3.34-1.89,5.34S41.65,35,40.87,37.22s-1.52,4.45-2.21,6.59-1.32,4.13-1.9,6-1,3.38-1.34,4.62c-.23.87-.44,1.63-.62,2.28a7,7,0,0,0-.28,1.93A3.89,3.89,0,0,0,36.21,62a9.06,9.06,0,0,0,5.21,1.21,11.91,11.91,0,0,0,2.6-.29,17,17,0,0,0,2-.59c.37-1.38.74-2.8,1.11-4.28s.73-2.89,1.1-4.27H60.74L62,58.54a14.05,14.05,0,0,0,.8,2.07A4,4,0,0,0,64,62.06a5.11,5.11,0,0,0,1.86.83,12,12,0,0,0,2.8.27,11.61,11.61,0,0,0,3.93-.59A5.57,5.57,0,0,0,75,61c-.66-2.53-1.47-5.44-2.41-8.73S70.73,45.66,69.78,42.29ZM50.25,44.46c.65-2.44,1.37-4.84,2.18-7.21L54.6,30.8H55c.55,1.89,1.16,4,1.83,6.38s1.32,4.8,2,7.28Z"/><path d="M108,20.45H77.92a4.31,4.31,0,0,0-3.14,1.17,5.28,5.28,0,0,0-1.21,3.87A9.22,9.22,0,0,0,74,28.25a8.66,8.66,0,0,0,.9,2.07H85.24V57.09a8.63,8.63,0,0,0,.41,2.9,3.75,3.75,0,0,0,1.24,1.72,5,5,0,0,0,2,.86,13.79,13.79,0,0,0,2.79.25,24.49,24.49,0,0,0,3.21-.21,21.13,21.13,0,0,0,2.38-.41V30.32H105a4.28,4.28,0,0,0,3.14-1.18,5.2,5.2,0,0,0,1.21-3.86A9.79,9.79,0,0,0,108,20.45Z"/><path d="M119.32,16.38a6.11,6.11,0,0,0,4.59-1.73,5.79,5.79,0,0,0,1.69-4.27,5.81,5.81,0,0,0-1.69-4.28,6.11,6.11,0,0,0-4.59-1.73,6,6,0,0,0-4.45,1.73,5.89,5.89,0,0,0-1.69,4.28,5.87,5.87,0,0,0,1.69,4.27A6,6,0,0,0,119.32,16.38Z"/><path d="M124.15,21.14a5,5,0,0,0-2-.86,14.57,14.57,0,0,0-2.8-.24,21,21,0,0,0-3.17.24c-1.11.16-1.91.29-2.42.38V57.09a8.39,8.39,0,0,0,.42,2.9,3.75,3.75,0,0,0,1.24,1.72,5,5,0,0,0,2,.86,13.89,13.89,0,0,0,2.8.25,24.49,24.49,0,0,0,3.21-.21,21.13,21.13,0,0,0,2.38-.41V25.76a8.11,8.11,0,0,0-.42-2.89A3.59,3.59,0,0,0,124.15,21.14Z"/><path d="M161.2,53H145.4V25.69A8.08,8.08,0,0,0,145,22.8a3.83,3.83,0,0,0-1.24-1.73,5,5,0,0,0-2-.86,13.68,13.68,0,0,0-2.86-.21,21.28,21.28,0,0,0-3.18.24c-1.1.16-1.91.29-2.41.38V56.26a6,6,0,0,0,5.55,6.42,6.31,6.31,0,0,0,.87,0h18.49a4.26,4.26,0,0,0,3.1-1.14,5.29,5.29,0,0,0,1.18-3.9A9.4,9.4,0,0,0,161.2,53Z"/><path d="M195.7,51.5a31.91,31.91,0,0,1-3.76,1.72,13.22,13.22,0,0,1-4.79.76,11.25,11.25,0,0,1-8.46-3.24q-3.12-3.24-3.13-9.25c0-4,.94-7.06,2.82-9.17s4.6-3.24,8.15-3.24a12.43,12.43,0,0,1,4.72.82,21.78,21.78,0,0,1,3.83,2,7.16,7.16,0,0,0,2.07-2.07,5.28,5.28,0,0,0,.9-3.1q0-3.24-3.49-5.31t-9.83-2.07a24.18,24.18,0,0,0-8.42,1.45,19.53,19.53,0,0,0-6.86,4.27A20,20,0,0,0,164.83,32a24.78,24.78,0,0,0-1.69,9.48,25.5,25.5,0,0,0,1.76,10,18.49,18.49,0,0,0,11.9,10.9,28.18,28.18,0,0,0,8.69,1.31c4.28,0,7.46-.65,9.56-2s3.14-2.91,3.14-4.8a7,7,0,0,0-.66-3.14A6.75,6.75,0,0,0,195.7,51.5Z"/><path d="M213.57,21.14a5,5,0,0,0-2-.86,14.57,14.57,0,0,0-2.8-.24,21,21,0,0,0-3.17.24c-1.1.16-1.91.29-2.41.38V57.09a8.63,8.63,0,0,0,.41,2.9,3.75,3.75,0,0,0,1.24,1.72,5,5,0,0,0,2,.86,13.79,13.79,0,0,0,2.79.25,24.49,24.49,0,0,0,3.21-.21,21.13,21.13,0,0,0,2.38-.41V25.76a8.33,8.33,0,0,0-.41-2.89A3.59,3.59,0,0,0,213.57,21.14Z"/><path d="M208.74,16.38a6.11,6.11,0,0,0,4.59-1.73A5.79,5.79,0,0,0,215,10.38a5.81,5.81,0,0,0-1.69-4.28,6.11,6.11,0,0,0-4.59-1.73,6,6,0,0,0-4.45,1.73,5.89,5.89,0,0,0-1.69,4.28,6,6,0,0,0,1.69,4.27A6,6,0,0,0,208.74,16.38Z"/><path d="M252.77,49.67l-3.66-4c-1.24-1.33-2.43-2.64-3.59-3.93l8.63-8.62A17.24,17.24,0,0,0,257,29.56a6.58,6.58,0,0,0,.9-3.38,5.36,5.36,0,0,0-2-4.18q-2-1.76-6.73-1.76L234.83,36.73v-11a8.11,8.11,0,0,0-.42-2.89,3.59,3.59,0,0,0-1.24-1.73,5,5,0,0,0-2-.86,14.47,14.47,0,0,0-2.79-.24,21,21,0,0,0-3.17.24c-1.11.16-1.91.29-2.42.38V57.09a8.39,8.39,0,0,0,.42,2.9,3.75,3.75,0,0,0,1.24,1.72,5,5,0,0,0,2,.86,13.89,13.89,0,0,0,2.8.25,25,25,0,0,0,3.24-.21,21.65,21.65,0,0,0,2.41-.41V47l9.73,11.31a25.4,25.4,0,0,0,3.45,3.35,8.12,8.12,0,0,0,7.11,1,6.49,6.49,0,0,0,2.11-1.24,6.06,6.06,0,0,0,1.48-2,6.21,6.21,0,0,0,.55-2.69l-3.07-3.25C255.12,52.24,254,51,252.77,49.67Z"/><path d="M298.58,21.14a5,5,0,0,0-2-.86,14.57,14.57,0,0,0-2.8-.24,21,21,0,0,0-3.17.24c-1.11.16-1.91.29-2.42.38V46.81A7.13,7.13,0,0,1,286.37,52,6.63,6.63,0,0,1,275,46.81v-21a8.33,8.33,0,0,0-.41-2.89,3.64,3.64,0,0,0-1.24-1.73,5,5,0,0,0-2-.86,14.47,14.47,0,0,0-2.79-.24,21.28,21.28,0,0,0-3.18.24c-1.1.16-1.91.29-2.41.38V47a17.59,17.59,0,0,0,1.27,6.8,14.59,14.59,0,0,0,3.7,5.25,16.69,16.69,0,0,0,5.86,3.34,26.39,26.39,0,0,0,15.59,0,16.65,16.65,0,0,0,5.87-3.34A14.24,14.24,0,0,0,299,53.8a17.41,17.41,0,0,0,1.28-6.8V25.76a8.11,8.11,0,0,0-.42-2.89A3.61,3.61,0,0,0,298.58,21.14Z"/><path d="M310.35,23a11.33,11.33,0,0,0-4.52,9.39,11.94,11.94,0,0,0,1,5.14,10.64,10.64,0,0,0,2.79,3.62,17.34,17.34,0,0,0,4.28,2.59c1.66.71,3.49,1.41,5.52,2.1l2.9,1a14.47,14.47,0,0,1,3.1,1.41,2.37,2.37,0,0,1,1.11,2.11,3,3,0,0,1-1.38,2.41c-.92.69-2.51,1-4.76,1a16.41,16.41,0,0,1-6.11-1.11A18.89,18.89,0,0,1,309.55,50,9,9,0,0,0,307,52.22a5.24,5.24,0,0,0-1.17,3.42,5.4,5.4,0,0,0,.89,3.07,8.33,8.33,0,0,0,2.49,2.35A13.84,13.84,0,0,0,313,62.64a26.92,26.92,0,0,0,4.79.8,3.91,3.91,0,0,1,.38,1.2,6.36,6.36,0,0,1,.11,1.07c0,2.12-1.49,3.25-4.49,3.39-.09.27-.17.56-.24.86a6.08,6.08,0,0,0-.1,1.2,5.07,5.07,0,0,0,1.76,4.11,7,7,0,0,0,4.65,1.48,8.19,8.19,0,0,0,6.28-2.34,8.31,8.31,0,0,0,2.21-5.94,9.11,9.11,0,0,0-.52-3.27,11,11,0,0,0-1-2.18q6.09-1.17,9.14-4.48a11.42,11.42,0,0,0,3-8.07,11.28,11.28,0,0,0-3.49-8.73,26.41,26.41,0,0,0-10-5.28l-3.66-1.18a9.28,9.28,0,0,1-2.69-1.2,2,2,0,0,1-.9-1.69,2.53,2.53,0,0,1,1.45-2.18,9.34,9.34,0,0,1,4.56-.86h1.27A73.39,73.39,0,0,1,320,19.63,18.14,18.14,0,0,0,310.35,23Z"/><path class="cls-1" d="M392.42,15.66c7,10.12,7.24,18.55,5.42,24.67C410,34.39,421.46,13.18,421.47,3.57,415.92,9.64,402.78,12.17,392.42,15.66Z"/><path class="cls-1" d="M396.89,6.14l-11.71,5.33L390.42,0l-8.86,8.23c-11.38-8.83-21.88-3-30.26,7.47a18.82,18.82,0,0,0-1.17,1.57c-10.58-4.27-25.7-7-31.64-13.74-.19,9.59,10.86,31,22.83,37.19-.25,1-.5,2-.76,2.89A15.62,15.62,0,0,1,342,50.47a14.4,14.4,0,0,1-3.88,10.11l-.38.38a53.75,53.75,0,0,0,12.09,1.78,21.44,21.44,0,0,1-6.53,4.53.11.11,0,0,0-.09.06l-.19.13c-.06.06-.13.12-.19.19s-.05,0-.06.07a.39.39,0,0,0,0,.11l-.1.24v.36a4.24,4.24,0,0,1-1.06,3,11.42,11.42,0,0,1-2.85,2.18,1.24,1.24,0,0,0-.43,1.69,1.23,1.23,0,0,0,1.69.43A13.32,13.32,0,0,0,343.5,73a6.88,6.88,0,0,0,1.23-2,4.1,4.1,0,0,1,.4,1,11.1,11.1,0,0,1,.17,3.59A1.25,1.25,0,0,0,346.38,77a1.24,1.24,0,0,0,1.38-1.08.86.86,0,0,0,0-.16,13.65,13.65,0,0,0-.25-4.37,6.69,6.69,0,0,0-1.4-2.71,22.73,22.73,0,0,0,7.06-5.91,63.86,63.86,0,0,0,6.91-.51,21.79,21.79,0,0,1-5,4.48l-.08.07c-.05,0-.11.1-.16.16l-.16.21-.05.08v.12a1.1,1.1,0,0,0-.06.26.81.81,0,0,0,0,.22V68a4.23,4.23,0,0,1-.58,3.14,11.77,11.77,0,0,1-2.48,2.6,1.23,1.23,0,0,0,1.57,1.9,13.61,13.61,0,0,0,3-3.2,6.67,6.67,0,0,0,.9-2.19,4.08,4.08,0,0,1,.55.92,11.11,11.11,0,0,1,.73,3.51,1.23,1.23,0,1,0,2.46-.22h0a13.4,13.4,0,0,0-.93-4.28,6.58,6.58,0,0,0-1.8-2.47,23,23,0,0,0,5.5-6c23.95-4.42,43.56-22.4,25.2-46.26Z"/></g></g></g></g></svg>