<?xml version="1.0" standalone="no"?>
<!DOCTYPE svg PUBLIC "-//W3C//DTD SVG 20010904//EN"
 "http://www.w3.org/TR/2001/REC-SVG-20010904/DTD/svg10.dtd">
<svg version="1.0" xmlns="http://www.w3.org/2000/svg"
 width="242.000000pt" height="242.000000pt" viewBox="0 0 242.000000 242.000000"
 preserveAspectRatio="xMidYMid meet">
<metadata>
Created by potrace 1.11, written by Peter Selinger 2001-2013
</metadata>
<g transform="translate(0.000000,242.000000) scale(0.100000,-0.100000)"
fill="#000000" stroke="none">
<path d="M1655 2083 c-17 -15 -63 -59 -103 -96 -66 -63 -75 -68 -90 -54 -63
55 -192 93 -286 83 -123 -12 -281 -117 -401 -268 l-30 -37 -240 80 c-255 85
-371 135 -447 193 -27 21 -48 31 -50 24 -5 -15 25 -150 50 -218 32 -89 124
-262 188 -351 73 -102 187 -218 248 -254 25 -15 46 -28 46 -30 0 -20 -68 -223
-91 -269 -31 -64 -104 -154 -116 -143 -3 4 -20 28 -37 53 -62 94 -122 109
-152 38 -15 -36 -6 -74 18 -74 27 0 -2 -9 -47 -15 -54 -8 -75 -16 -99 -41 -17
-17 -15 -56 5 -80 15 -18 75 -18 129 1 54 19 53 19 39 -6 -24 -47 60 -106 100
-71 25 22 41 74 41 133 l0 48 35 -15 c51 -21 230 -62 298 -67 32 -3 61 -7 63
-10 6 -6 -106 -83 -133 -91 -16 -5 -23 -15 -23 -31 0 -40 -20 -72 -65 -104
-33 -23 -42 -36 -38 -51 9 -35 49 -24 103 28 28 27 52 46 55 44 3 -3 5 -27 5
-52 0 -55 20 -81 45 -60 20 16 20 116 0 150 -20 35 -20 36 28 69 24 16 59 45
78 65 32 33 40 36 107 42 40 3 72 3 72 1 0 -8 -36 -43 -77 -75 -37 -29 -41
-36 -37 -65 5 -27 -1 -40 -40 -85 -46 -54 -51 -82 -15 -82 25 0 84 54 99 91
16 37 27 29 36 -26 7 -48 25 -71 49 -61 28 11 14 110 -24 164 -16 21 -14 24
49 91 56 59 72 70 116 79 203 44 413 152 534 276 208 212 218 460 32 744 -39
59 -42 46 31 126 16 17 51 57 78 88 l50 57 -132 -59 c-73 -33 -133 -59 -135
-58 -1 2 24 60 56 131 32 70 58 127 57 127 -1 0 -16 -12 -32 -27z"/>
<path d="M2375 1998 c-66 -61 -254 -138 -524 -214 -57 -16 -106 -34 -108 -41
-3 -7 5 -26 16 -42 39 -54 91 -176 106 -246 17 -79 19 -181 5 -240 -5 -22 -7
-41 -5 -43 6 -6 99 60 146 103 65 60 140 150 199 238 102 153 207 409 198 485
l-3 27 -30 -27z"/>
</g>
</svg>
